<?xml version="1.0" encoding="UTF-8"?>
<svg width="452pt" version="1.1" xmlns="http://www.w3.org/2000/svg" height="237pt" viewBox="0 0 452 237" xmlns:xlink="http://www.w3.org/1999/xlink">
 <defs>
  <clipPath id="Clip0">
   <path d="M0 0 L452 0 L452 237 L0 237 L0 0 Z" transform="translate(0, 0)"/>
  </clipPath>
 </defs>
 <g id="Hintergrund">
  <g id="Gruppe1" clip-path="url(#Clip0)">
   <path style="fill:#000000; fill-rule:nonzero;stroke:none;" d="M1.7 39.2 L0.85 39.7 L0 39.25 L0 0.4 L0.85 0 L1.7 0.5 L1.7 39.2 Z" transform="translate(170.65, 146)"/>
   <path style="fill:#000000; fill-rule:nonzero;stroke:none;" d="M1.7 32.8 L0 32.8 L0 0 L1.7 0 L1.7 32.8 Z" transform="translate(176.6, 149.45)"/>
   <path style="fill:#000000; fill-rule:nonzero;stroke:none;" d="M34.35 19.35 L34.35 21.3 L0.05 1.5 L0 0.5 L0.85 0 L34.35 19.35 Z" transform="translate(171.5, 185.2)"/>
   <path style="fill:#000000; fill-rule:nonzero;stroke:none;" d="M33.55 0 L34.4 0.5 L34.4 1.45 L0 21.3 L0 19.35 L33.55 0 Z" transform="translate(205.85, 185.2)"/>
   <path style="fill:#000000; fill-rule:nonzero;stroke:none;" d="M28.4 0 L29.25 1.5 L0.85 17.9 L0 16.4 L28.4 0 Z" transform="translate(205.45, 181.5)"/>
   <path style="fill:#000000; fill-rule:nonzero;stroke:none;" d="M0 1 L1.7 0 L1.7 39.7 L0.85 40.2 L0 39.7 L0 1 Z" transform="translate(239.4, 145.5)"/>
   <path style="fill:#000000; fill-rule:nonzero;stroke:none;" d="M0 1.5 L0 0.5 L0.85 0 L35.25 19.85 L33.55 20.85 L0 1.5 Z" transform="translate(205.85, 125.65)"/>
   <path style="fill:#000000; fill-rule:nonzero;stroke:none;" d="M0 1.45 L0.85 0 L29.25 16.4 L28.4 17.85 L0 1.45 Z" transform="translate(205.45, 132.3)"/>
   <path style="fill:#000000; fill-rule:nonzero;stroke:none;" d="M0.85 20.85 L0 20.35 L0.1 19.3 L33.5 0 L34.35 0.5 L34.35 1.5 L0.85 20.85 Z" transform="translate(171.5, 125.65)"/>
   <path style="fill:#000000; fill-rule:nonzero;stroke:none;" d="M34.35 19.35 L34.35 21.3 L0 1.45 L0 0.5 L0.85 0 L34.35 19.35 Z" transform="translate(240.25, 185.2)"/>
   <path style="fill:#000000; fill-rule:nonzero;stroke:none;" d="M34.4 0 L34.4 1.95 L0 21.8 L0 19.85 L34.4 0 Z" transform="translate(274.6, 184.7)"/>
   <path style="fill:#000000; fill-rule:nonzero;stroke:none;" d="M34.35 19.85 L34.35 21.8 L0 1.95 L0 0 L34.35 19.85 Z" transform="translate(309, 184.7)"/>
   <path style="fill:#000000; fill-rule:nonzero;stroke:none;" d="M34.4 0 L34.4 1.95 L0 21.8 L0 19.85 L34.4 0 Z" transform="translate(343.35, 184.7)"/>
   <path style="fill:#000000; fill-rule:evenodd;stroke:none;" d="M14.731 5.71 C14.036 1.875 11.828 0 7.989 0 C5.637 0 3.743 0.746 2.446 2.183 C0.864 3.914 0 6.41 0 9.238 C0 12.117 0.887 14.589 2.52 16.293 C3.887 17.683 5.614 18.332 7.895 18.332 C12.164 18.332 14.563 16.031 15.09 11.398 L12.789 11.398 C12.598 12.597 12.356 13.414 11.996 14.109 C11.278 15.55 9.789 16.367 7.918 16.367 C4.438 16.367 2.231 13.582 2.231 9.214 C2.231 4.73 4.317 1.968 7.727 1.968 C9.141 1.968 10.461 2.378 11.18 3.074 C11.828 3.671 12.188 4.394 12.453 5.71 L14.731 5.71 Z" transform="translate(405.652, 196.519)"/>
   <path style="fill:#000000; fill-rule:evenodd;stroke:none;" d="M11.227 9.527 L11.227 17.492 L13.461 17.492 L13.461 0 L11.227 0 L11.227 7.558 L2.231 7.558 L2.231 0 L0 0 L0 17.492 L2.231 17.492 L2.231 9.527 L11.227 9.527 Z" transform="translate(423.819, 196.808)"/>
   <path style="fill:#000000; fill-rule:evenodd;stroke:none;" d="M3.407 6.925 L3.606 6.925 L4.274 6.906 C6.024 6.906 6.922 7.699 6.922 9.234 C6.922 10.836 5.934 11.793 4.274 11.793 C2.543 11.793 1.696 10.925 1.586 9.07 L0 9.07 C0.071 10.097 0.25 10.765 0.559 11.343 C1.207 12.57 2.469 13.199 4.219 13.199 C6.852 13.199 8.547 11.632 8.547 9.214 C8.547 7.589 7.914 6.691 6.383 6.168 C7.575 5.679 8.168 4.797 8.168 3.515 C8.168 1.316 6.707 0 4.274 0 C1.696 0 0.325 1.406 0.27 4.129 L1.856 4.129 C1.875 3.355 1.946 2.922 2.145 2.523 C2.504 1.82 3.301 1.386 4.289 1.386 C5.7 1.386 6.547 2.199 6.547 3.57 C6.547 4.472 6.219 5.011 5.516 5.3 C5.086 5.48 4.524 5.554 3.407 5.57 L3.407 6.925 Z" transform="translate(439.732, 206.015)"/>
   <path style="fill:#000000; fill-rule:nonzero;stroke:none;" d="M26.75 15.45 L25.9 16.95 L0 1.95 L0 0 L26.75 15.45 Z" transform="translate(377.75, 184.7)"/>
   <path style="fill:#000000; fill-rule:evenodd;stroke:none;" d="M8.421 0 C3.41 0 0 3.6954 0 9.168 C0 14.6602 3.382 18.3321 8.449 18.3321 C10.582 18.3321 12.453 17.6836 13.871 16.4844 C15.765 14.879 16.894 12.168 16.894 9.3125 C16.894 3.6719 13.558 0 8.421 0 Z M8.421 1.9688 C12.214 1.9688 14.66 4.8243 14.66 9.2618 C14.66 13.4883 12.14 16.3672 8.449 16.3672 C4.703 16.3672 2.234 13.4883 2.234 9.168 C2.234 4.8477 4.703 1.9688 8.421 1.9688 Z" transform="translate(198.561, 77.4189)"/>
   <path style="fill:#000000; fill-rule:evenodd;stroke:none;" d="M11.227 9.5274 L11.227 17.4922 L13.461 17.4922 L13.461 0 L11.227 0 L11.227 7.5586 L2.231 7.5586 L2.231 0 L0 0 L0 17.4922 L2.231 17.4922 L2.231 9.5274 L11.227 9.5274 Z" transform="translate(218.314, 77.708)"/>
   <path style="fill:#000000; fill-rule:nonzero;stroke:none;" d="M0 0 L1.7 0 L1.7 28.15 L0.85 28.65 L0 28.15 L0 0 Z" transform="translate(205, 97.5)"/>
   <path style="fill:#000000; fill-rule:evenodd;stroke:none;" d="M8.421 0 C3.41 0 0 3.695 0 9.168 C0 14.66 3.382 18.332 8.449 18.332 C10.582 18.332 12.453 17.683 13.871 16.484 C15.765 14.878 16.894 12.168 16.894 9.312 C16.894 3.671 13.558 0 8.421 0 Z M8.421 1.968 C12.214 1.968 14.66 4.824 14.66 9.261 C14.66 13.488 12.14 16.367 8.449 16.367 C4.703 16.367 2.234 13.488 2.234 9.168 C2.234 4.847 4.703 1.968 8.421 1.968 Z" transform="translate(135.811, 197.519)"/>
   <path style="fill:#000000; fill-rule:nonzero;stroke:none;" d="M1 15 L0 13.65 L18.55 0 L19.4 0.45 L19.45 1.45 L1 15 Z" transform="translate(152.1, 185.25)"/>
   <path style="fill:#000000; fill-rule:nonzero;stroke:none;" d="M0 1.05 L0.3 0.2 L1.4 0 L34.85 27.65 L34.75 28.7 L33.9 29.1 L0 1.05 Z" transform="translate(136.75, 117.3)"/>
   <path style="fill:#000000; fill-rule:nonzero;stroke:none;" d="M19.55 0 L21.5 0 L1.6 34.0998 L0.5 34.2998 L0 33.4498 L19.55 0 Z" transform="translate(136.55, 83.2002)"/>
   <path style="fill:#000000; fill-rule:nonzero;stroke:none;" d="M0 0.8496 L0.45 0 L1.45 0 L20.85 34.4502 L18.9 34.4502 L0 0.8496 Z" transform="translate(137.2, 48.75)"/>
   <path style="fill:#000000; fill-rule:nonzero;stroke:none;" d="M0 0.7998 L1.5 0 L17.5 28.5 L16.05 29.3496 L0 0.7998 Z" transform="translate(133.45, 54.25)"/>
   <path style="fill:#000000; fill-rule:nonzero;stroke:none;" d="M0.9502 1.7002 L0 0 L39.7 0.3506 L40.15 1.2002 L39.7 2.0498 L0.9502 1.7002 Z" transform="translate(97.5, 47.5498)"/>
   <path style="fill:#000000; fill-rule:nonzero;stroke:none;" d="M1.9502 34.9502 L0 34.9502 L20.5 0 L21.4502 1.7002 L1.9502 34.9502 Z" transform="translate(77, 47.5498)"/>
   <path style="fill:#000000; fill-rule:nonzero;stroke:none;" d="M20.8496 33.8 L20.3496 34.65 L18.8496 33.65 L0 0 L1.9502 0 L20.8496 33.8 Z" transform="translate(77, 82.5)"/>
   <path style="fill:#000000; fill-rule:nonzero;stroke:none;" d="M39.2004 0.35 L39.7004 1.2 L39.4004 2.05 L0.5 1.7 L0 0.85 L0.5 0 L39.2004 0.35 Z" transform="translate(97.3496, 116.3)"/>
   <path style="fill:#000000; fill-rule:nonzero;stroke:none;" d="M0.9502 34.8 L0 33.1 L19.4004 1 L21 0 L21.5 0.85 L0.9502 34.8 Z" transform="translate(76.3496, 117.15)"/>
   <path style="fill:#000000; fill-rule:evenodd;stroke:none;" d="M11.2266 9.528 L11.2266 17.493 L13.4609 17.493 L13.4609 0 L11.2266 0 L11.2266 7.559 L2.23047 7.559 L2.23047 0 L0 0 L0 17.493 L2.23047 17.493 L2.23047 9.528 L11.2266 9.528 Z" transform="translate(4.17969, 142.357)"/>
   <path style="fill:#000000; fill-rule:evenodd;stroke:none;" d="M3.4062 6.926 L3.6054 6.926 L4.2734 6.907 C6.0234 6.907 6.9218 7.7 6.9218 9.235 C6.9218 10.836 5.9336 11.793 4.2734 11.793 C2.5429 11.793 1.6953 10.926 1.5859 9.071 L0 9.071 C0.0703 10.098 0.25 10.766 0.5586 11.344 C1.207 12.571 2.4687 13.2 4.2187 13.2 C6.8515 13.2 8.5468 11.633 8.5468 9.215 C8.5468 7.59 7.914 6.692 6.3828 6.168 C7.5742 5.68 8.1679 4.797 8.1679 3.516 C8.1679 1.317 6.707 0 4.2734 0 C1.6953 0 0.3242 1.407 0.2695 4.129 L1.8554 4.129 C1.875 3.356 1.9453 2.922 2.1445 2.524 C2.5039 1.821 3.3008 1.387 4.289 1.387 C5.6992 1.387 6.5468 2.2 6.5468 3.571 C6.5468 4.473 6.2187 5.012 5.5156 5.301 C5.0859 5.481 4.5234 5.555 3.4062 5.571 L3.4062 6.926 Z" transform="translate(20.0928, 151.564)"/>
   <path style="fill:#000000; fill-rule:evenodd;stroke:none;" d="M14.7305 5.711 C14.0352 1.875 11.8281 0 7.9883 0 C5.6367 0 3.7422 0.746 2.4453 2.184 C0.8633 3.914 0 6.411 0 9.239 C0 12.118 0.8867 14.59 2.5195 16.293 C3.8867 17.684 5.6133 18.332 7.8945 18.332 C12.1641 18.332 14.5625 16.032 15.0898 11.399 L12.7891 11.399 C12.5977 12.598 12.3555 13.414 11.9961 14.11 C11.2773 15.551 9.7891 16.368 7.918 16.368 C4.4375 16.368 2.2305 13.582 2.2305 9.215 C2.2305 4.731 4.3164 1.969 7.7266 1.969 C9.1406 1.969 10.4609 2.379 11.1797 3.075 C11.8281 3.672 12.1875 4.395 12.4531 5.711 L14.7305 5.711 Z" transform="translate(30.6748, 142.068)"/>
   <path style="fill:#000000; fill-rule:nonzero;stroke:none;" d="M0 1.7 L0 0 L28.1992 0 L29.1494 1.7 L0 1.7 Z" transform="translate(48.1504, 150.25)"/>
   <path style="fill:#000000; fill-rule:evenodd;stroke:none;" d="M14.73 5.711 C14.035 1.875 11.828 0 7.9882 0 C5.6367 0 3.7421 0.746 2.4453 2.184 C0.8632 3.914 0 6.41 0 9.238 C0 12.117 0.8867 14.59 2.5195 16.293 C3.8867 17.684 5.6132 18.332 7.8945 18.332 C12.164 18.332 14.562 16.031 15.09 11.398 L12.789 11.398 C12.598 12.598 12.355 13.414 11.996 14.109 C11.277 15.551 9.789 16.367 7.9179 16.367 C4.4375 16.367 2.2304 13.582 2.2304 9.215 C2.2304 4.73 4.3164 1.969 7.7265 1.969 C9.1406 1.969 10.461 2.379 11.18 3.074 C11.828 3.672 12.187 4.394 12.453 5.711 L14.73 5.711 Z" transform="translate(90.252, 176.419)"/>
   <path style="fill:#000000; fill-rule:evenodd;stroke:none;" d="M11.227 9.527 L11.227 17.492 L13.461 17.492 L13.461 0 L11.227 0 L11.227 7.559 L2.23 7.559 L2.23 0 L0 0 L0 17.492 L2.23 17.492 L2.23 9.527 L11.227 9.527 Z" transform="translate(108.419, 176.708)"/>
   <path style="fill:#000000; fill-rule:evenodd;stroke:none;" d="M8.512 11.215 L1.785 11.215 C1.949 10.172 2.524 9.504 4.094 8.582 L5.899 7.609 C7.684 6.637 8.602 5.32 8.602 3.75 C8.602 2.688 8.168 1.695 7.41 0.992 C6.653 0.324 5.735 0 4.508 0 C2.887 0 1.676 0.559 0.973 1.66 C0.524 2.344 0.324 3.137 0.289 4.438 L1.875 4.438 C1.93 3.57 2.039 3.047 2.254 2.633 C2.668 1.856 3.5 1.387 4.453 1.387 C5.899 1.387 6.981 2.414 6.981 3.785 C6.981 4.797 6.383 5.66 5.246 6.313 L3.59 7.25 C0.918 8.766 0.145 9.973 0 12.785 L8.512 12.785 L8.512 11.215 Z" transform="translate(124.367, 185.915)"/>
   <path style="fill:#000000; fill-rule:nonzero;stroke:none;" d="M17.0508 27 L15.6006 27.85 L0 0.85 L1.5 0 L17.0508 27 Z" transform="translate(77.8496, 147.75)"/>
   <path style="fill:#000000; fill-rule:nonzero;stroke:none;" d="M17.0996 27.05 L15.6494 27.9 L0 0.85 L1.5 0 L17.0996 27.05 Z" transform="translate(72.6504, 150.7)"/>
   <path style="fill:#000000; fill-rule:evenodd;stroke:none;" d="M11.226 9.527 L11.226 17.492 L13.461 17.492 L13.461 0 L11.226 0 L11.226 7.558 L2.23 7.558 L2.23 0 L0 0 L0 17.492 L2.23 17.492 L2.23 9.527 L11.226 9.527 Z" transform="translate(169.842, 108.808)"/>
   <path style="fill:#000000; fill-rule:nonzero;stroke:none;" d="M1.75 0 L1.7 7.65 L0 7.45 L0.05 0.2 L1.75 0 Z" transform="translate(165.75, 113.85)"/>
   <path style="fill:#000000; fill-rule:nonzero;stroke:none;" d="M1.75 0 L1.7 6.5 L0 6.3 L0.05 0.15 L1.75 0 Z" transform="translate(160.85, 114.4)"/>
   <path style="fill:#000000; fill-rule:nonzero;stroke:none;" d="M1.7 0 L1.7 5.45 L0 5.2 L0 0.2 L1.7 0 Z" transform="translate(156, 114.9)"/>
   <path style="fill:#000000; fill-rule:nonzero;stroke:none;" d="M1.7 0 L1.7 4.3 L0 4.1 L0 0.15 L1.7 0 Z" transform="translate(151.1, 115.45)"/>
   <path style="fill:#000000; fill-rule:nonzero;stroke:none;" d="M1.7 0 L1.7 3.2 L0 3 L0 0.2 L1.7 0 Z" transform="translate(146.2, 115.95)"/>
   <path style="fill:#000000; fill-rule:nonzero;stroke:none;" d="M1.7 0 L1.7 2.05 L0 1.85 L0 0.15 L1.7 0 Z" transform="translate(141.3, 116.5)"/>
   <path style="fill:#000000; fill-rule:evenodd;stroke:none;" d="M11.2265 9.527 L11.2265 17.492 L13.4609 17.492 L13.4609 0 L11.2265 0 L11.2265 7.558 L2.2304 7.558 L2.2304 0 L0 0 L0 17.492 L2.2304 17.492 L2.2304 9.527 L11.2265 9.527 Z" transform="translate(48.3926, 108.558)"/>
   <path style="fill:#000000; fill-rule:nonzero;stroke:none;" d="M0.0996 7.65 L0 0 L31.8496 2.5 L33.3496 3.5 L31.75 4.5 L0.0996 7.65 Z" transform="translate(64, 113.65)"/>
   <path style="fill:#000000; fill-rule:evenodd;stroke:none;" d="M11.227 9.528 L11.227 17.492 L13.461 17.492 L13.461 0 L11.227 0 L11.227 7.559 L2.231 7.559 L2.231 0 L0 0 L0 17.492 L2.231 17.492 L2.231 9.528 L11.227 9.528 Z" transform="translate(138.692, 217.158)"/>
   <path style="fill:#000000; fill-rule:evenodd;stroke:none;" d="M14.73 5.71094 C14.035 1.875 11.828 0 7.988 0 C5.636 0 3.742 0.74609 2.445 2.18359 C0.863 3.91406 0 6.41014 0 9.23824 C0 12.1171 0.886 14.5898 2.519 16.2929 C3.886 17.6836 5.613 18.332 7.894 18.332 C12.164 18.332 14.562 16.0312 15.09 11.3984 L12.789 11.3984 C12.597 12.5976 12.355 13.414 11.996 14.1093 C11.277 15.5507 9.789 16.3671 7.918 16.3671 C4.437 16.3671 2.23 13.582 2.23 9.21484 C2.23 4.73044 4.316 1.96875 7.726 1.96875 C9.14 1.96875 10.461 2.37891 11.179 3.07422 C11.828 3.67187 12.187 4.39453 12.453 5.71094 L14.73 5.71094 Z" transform="translate(151.053, 5.31836)"/>
   <path style="fill:#000000; fill-rule:evenodd;stroke:none;" d="M11.226 9.52738 L11.226 17.4922 L13.461 17.4922 L13.461 0 L11.226 0 L11.226 7.55858 L2.23 7.55858 L2.23 0 L0 0 L0 17.4922 L2.23 17.4922 L2.23 9.52738 L11.226 9.52738 Z" transform="translate(169.22, 5.60742)"/>
   <path style="fill:#000000; fill-rule:evenodd;stroke:none;" d="M3.406 6.9257 L3.605 6.9257 L4.273 6.9062 C6.023 6.9062 6.922 7.6992 6.922 9.2343 C6.922 10.8359 5.933 11.7929 4.273 11.7929 C2.543 11.7929 1.695 10.9257 1.586 9.0703 L0 9.0703 C0.07 10.0976 0.25 10.7656 0.558 11.3437 C1.207 12.5703 2.469 13.1992 4.219 13.1992 C6.851 13.1992 8.547 11.6328 8.547 9.2148 C8.547 7.5898 7.914 6.6914 6.383 6.1679 C7.574 5.6796 8.168 4.7968 8.168 3.5156 C8.168 1.3164 6.707 0 4.273 0 C1.695 0 0.324 1.4062 0.269 4.1289 L1.855 4.1289 C1.875 3.3554 1.945 2.9218 2.144 2.5234 C2.504 1.8203 3.301 1.3867 4.289 1.3867 C5.699 1.3867 6.547 2.1992 6.547 3.5703 C6.547 4.4726 6.219 5.0117 5.515 5.3007 C5.086 5.4804 4.523 5.5546 3.406 5.5703 L3.406 6.9257 Z" transform="translate(185.133, 14.8145)"/>
   <path style="fill:#000000; fill-rule:nonzero;stroke:none;" d="M14.3 0 L15.75 0.8506 L1.45 25.6504 L0.45 25.6504 L0 24.8008 L14.3 0 Z" transform="translate(137.2, 23.0996)"/>
  </g>
 </g>
</svg>
